<?xml version="1.0" encoding="UTF-8" standalone="no"?>
<!DOCTYPE svg PUBLIC "-//W3C//DTD SVG 1.1//EN"
 "http://www.w3.org/Graphics/SVG/1.1/DTD/svg11.dtd">
<!-- Generated by graphviz version 2.40.1 (20161225.0304)
 -->
<!-- Title: state transitions Pages: 1 -->
<svg width="243pt" height="352pt"
 viewBox="0.00 0.00 243.24 352.00" xmlns="http://www.w3.org/2000/svg" xmlns:xlink="http://www.w3.org/1999/xlink">
<g id="graph0" class="graph" transform="scale(1 1) rotate(0) translate(4 348)">
<title>state transitions</title>
<polygon fill="#ffffff" stroke="transparent" points="-4,4 -4,-348 239.238,-348 239.238,4 -4,4"/>
<g id="clust1" class="cluster state regular">
<title>cluster_next_state</title>
<path fill="none" stroke="#000000" stroke-width="2" d="M20,-8C20,-8 178,-8 178,-8 184,-8 190,-14 190,-20 190,-20 190,-324 190,-324 190,-330 184,-336 178,-336 178,-336 20,-336 20,-336 14,-336 8,-330 8,-324 8,-324 8,-20 8,-20 8,-14 14,-8 20,-8"/>
<text text-anchor="start" x="71.8208" y="-317.2" font-family="Helvetica,sans-Serif" font-size="12.00" fill="#000000">next_state</text>
</g>
<!-- next_state -->
<!-- s0 -->
<g id="node2" class="node state regular">
<title>s0</title>
<polygon fill="#ffffff" fill-opacity="0.003922" stroke="transparent" stroke-width="2" points="72,-134 16,-134 16,-98 72,-98 72,-134"/>
<text text-anchor="start" x="37.6646" y="-112.2" font-family="Helvetica,sans-Serif" font-size="12.00" fill="#000000">s0</text>
<path fill="none" stroke="#000000" stroke-width="2" d="M28.3333,-99C28.3333,-99 59.6667,-99 59.6667,-99 65.3333,-99 71,-104.6667 71,-110.3333 71,-110.3333 71,-121.6667 71,-121.6667 71,-127.3333 65.3333,-133 59.6667,-133 59.6667,-133 28.3333,-133 28.3333,-133 22.6667,-133 17,-127.3333 17,-121.6667 17,-121.6667 17,-110.3333 17,-110.3333 17,-104.6667 22.6667,-99 28.3333,-99"/>
</g>
<!-- s1 -->
<g id="node3" class="node state regular">
<title>s1</title>
<polygon fill="#ffffff" fill-opacity="0.003922" stroke="transparent" stroke-width="2" points="98,-52 42,-52 42,-16 98,-16 98,-52"/>
<text text-anchor="start" x="63.6646" y="-30.2" font-family="Helvetica,sans-Serif" font-size="12.00" fill="#000000">s1</text>
<path fill="none" stroke="#000000" stroke-width="2" d="M54.3333,-17C54.3333,-17 85.6667,-17 85.6667,-17 91.3333,-17 97,-22.6667 97,-28.3333 97,-28.3333 97,-39.6667 97,-39.6667 97,-45.3333 91.3333,-51 85.6667,-51 85.6667,-51 54.3333,-51 54.3333,-51 48.6667,-51 43,-45.3333 43,-39.6667 43,-39.6667 43,-28.3333 43,-28.3333 43,-22.6667 48.6667,-17 54.3333,-17"/>
</g>
<!-- s0&#45;&gt;s1 -->
<g id="edge1" class="edge transition">
<title>s0&#45;&gt;s1</title>
<path fill="none" stroke="#000000" d="M49.7702,-97.8015C53.1027,-87.2915 57.3645,-73.8503 61.1163,-62.0177"/>
<polygon fill="#000000" stroke="#000000" points="64.5597,-62.7378 64.2459,-52.1476 57.8871,-60.622 64.5597,-62.7378"/>
<text text-anchor="middle" x="59.3895" y="-72" font-family="Helvetica,sans-Serif" font-size="10.00" fill="#000000"> </text>
</g>
<!-- add -->
<g id="node4" class="node state regular">
<title>add</title>
<polygon fill="#ffffff" fill-opacity="0.003922" stroke="transparent" stroke-width="2" points="94,-298 38,-298 38,-262 94,-262 94,-298"/>
<text text-anchor="start" x="55.9938" y="-276.2" font-family="Helvetica,sans-Serif" font-size="12.00" fill="#000000">add</text>
<path fill="none" stroke="#000000" stroke-width="2" d="M50.3333,-263C50.3333,-263 81.6667,-263 81.6667,-263 87.3333,-263 93,-268.6667 93,-274.3333 93,-274.3333 93,-285.6667 93,-285.6667 93,-291.3333 87.3333,-297 81.6667,-297 81.6667,-297 50.3333,-297 50.3333,-297 44.6667,-297 39,-291.3333 39,-285.6667 39,-285.6667 39,-274.3333 39,-274.3333 39,-268.6667 44.6667,-263 50.3333,-263"/>
</g>
<!-- add&#45;&gt;s1 -->
<g id="edge3" class="edge transition">
<title>add&#45;&gt;s1</title>
<path fill="none" stroke="#000000" d="M94.1026,-272.0624C107.4598,-266.721 122.1851,-258.181 130,-245 165.7219,-184.75 119.148,-102.165 90.0882,-60.4347"/>
<polygon fill="#000000" stroke="#000000" points="92.8484,-58.2773 84.1889,-52.1728 87.1516,-62.345 92.8484,-58.2773"/>
<text text-anchor="start" x="138" y="-154" font-family="Helvetica,sans-Serif" font-size="10.00" fill="#000000">not (sum_lt == 1&#39;b0) &#160;&#160;</text>
</g>
<!-- disp -->
<g id="node5" class="node state regular">
<title>disp</title>
<polygon fill="#ffffff" fill-opacity="0.003922" stroke="transparent" stroke-width="2" points="72,-216 16,-216 16,-180 72,-180 72,-216"/>
<text text-anchor="start" x="32.9978" y="-194.2" font-family="Helvetica,sans-Serif" font-size="12.00" fill="#000000">disp</text>
<path fill="none" stroke="#000000" stroke-width="2" d="M28.3333,-181C28.3333,-181 59.6667,-181 59.6667,-181 65.3333,-181 71,-186.6667 71,-192.3333 71,-192.3333 71,-203.6667 71,-203.6667 71,-209.3333 65.3333,-215 59.6667,-215 59.6667,-215 28.3333,-215 28.3333,-215 22.6667,-215 17,-209.3333 17,-203.6667 17,-203.6667 17,-192.3333 17,-192.3333 17,-186.6667 22.6667,-181 28.3333,-181"/>
</g>
<!-- add&#45;&gt;disp -->
<g id="edge2" class="edge transition">
<title>add&#45;&gt;disp</title>
<path fill="none" stroke="#000000" d="M60.0973,-261.9055C58.4031,-256.4913 56.6069,-250.5252 55.096,-245 53.4526,-238.9903 51.8283,-232.5091 50.3505,-226.3367"/>
<polygon fill="#000000" stroke="#000000" points="53.7073,-225.3198 48.0243,-216.3782 46.8908,-226.9122 53.7073,-225.3198"/>
<text text-anchor="start" x="55" y="-236" font-family="Helvetica,sans-Serif" font-size="10.00" fill="#000000">sum_lt == 1&#39;b0 &#160;&#160;</text>
</g>
<!-- disp&#45;&gt;s0 -->
<g id="edge4" class="edge transition">
<title>disp&#45;&gt;s0</title>
<path fill="none" stroke="#000000" d="M44,-179.8015C44,-169.3976 44,-156.1215 44,-144.3768"/>
<polygon fill="#000000" stroke="#000000" points="47.5001,-144.1476 44,-134.1476 40.5001,-144.1476 47.5001,-144.1476"/>
<text text-anchor="middle" x="45.3895" y="-154" font-family="Helvetica,sans-Serif" font-size="10.00" fill="#000000"> </text>
</g>
</g>
</svg>
